<svg xmlns="http://www.w3.org/2000/svg" xml:space="preserve" stroke-miterlimit="10" style="fill-rule:nonzero;clip-rule:evenodd;stroke-linecap:round;stroke-linejoin:round" viewBox="0 0 100.004 108.965"><path fill="#fff" d="M99.808 48.12c-.193-1.832-.482-3.954-1.06-6.268-.58-2.314-1.544-4.822-2.797-7.522-1.35-2.603-2.99-5.4-5.207-8.004-.868-1.06-1.833-2.025-2.797-3.086 1.543-6.075-1.832-11.379-1.832-11.379-5.883-.386-9.547 1.832-10.897 2.797-.193-.097-.482-.193-.675-.29-.965-.385-2.025-.77-3.086-1.157-1.06-.289-2.122-.675-3.182-.868-1.061-.289-2.218-.482-3.376-.675-.192 0-.385-.096-.578-.096C61.814 3.472 54.485 0 54.485 0c-8.39 5.4-10.03 12.633-10.03 12.633s0 .193-.096.386c-.482.096-.868.289-1.35.385-.578.193-1.254.386-1.832.675-.579.29-1.254.482-1.832.772a64.87 64.87 0 0 0-3.665 1.832c-1.157.675-2.314 1.35-3.375 2.121-.193-.096-.29-.192-.29-.192-11.282-4.34-21.31.868-21.31.868-.869 12.054 4.531 19.575 5.592 20.925-.29.772-.482 1.447-.771 2.218-.868 2.7-1.447 5.497-1.832 8.39-.097.386-.097.868-.193 1.254C3.086 57.377 0 67.985 0 67.985c8.679 10.03 18.9 10.608 18.9 10.608 1.255 2.314 2.797 4.532 4.437 6.557.675.868 1.446 1.64 2.218 2.508-3.183 9.064.482 16.683.482 16.683 9.74.385 16.104-4.244 17.454-5.304l2.893.868c2.99.771 6.076 1.253 9.065 1.35H59.403c4.532 6.557 12.633 7.425 12.633 7.425 5.689-6.075 6.075-11.958 6.075-13.308v-.579c1.157-.867 2.314-1.735 3.471-2.7 2.315-2.025 4.243-4.435 5.98-6.943.192-.193.288-.482.481-.675 6.461.386 10.994-4.05 10.994-4.05-1.061-6.75-4.918-10.029-5.69-10.608l-.096-.096-.097-.096-.096-.097c0-.386.096-.771.096-1.253.097-.772.097-1.447.097-2.218V63.26c0-.193 0-.386-.097-.578l-.096-.58-.097-.578c-.096-.771-.289-1.446-.385-2.218a28.572 28.572 0 0 0-3.279-8.1c-1.543-2.507-3.375-4.629-5.497-6.558-2.121-1.832-4.436-3.375-6.943-4.435a24.342 24.342 0 0 0-7.618-2.122c-1.254-.193-2.604-.193-3.857-.193h-1.929c-.675.097-1.35.193-1.929.29-2.603.482-5.014 1.446-7.136 2.7-2.121 1.253-3.953 2.893-5.496 4.725-1.543 1.832-2.7 3.76-3.472 5.882-.772 2.025-1.254 4.243-1.35 6.268v2.315c0 .29 0 .482.096.771.097 1.061.29 2.025.579 2.99.579 1.928 1.446 3.664 2.604 5.207a15.354 15.354 0 0 0 3.857 3.664 16.997 16.997 0 0 0 4.436 2.122c1.543.482 2.99.675 4.34.579h2.025c.192 0 .385-.097.482-.097.193 0 .289-.096.482-.096.29-.097.675-.193.964-.29.579-.192 1.157-.482 1.736-.675a9.53 9.53 0 0 0 1.446-.868c.097-.096.29-.192.386-.289.482-.386.579-1.06.193-1.543a1.347 1.347 0 0 0-1.447-.289c-.096.096-.192.096-.385.193a6.697 6.697 0 0 1-1.254.482c-.482.097-.964.29-1.446.386-.29 0-.483.096-.772.096h-1.639s-.097 0 0 0h-.386c-.096 0-.29 0-.386-.096-1.06-.193-2.218-.482-3.278-.965-1.061-.482-2.122-1.157-2.99-2.025a12.16 12.16 0 0 1-2.41-2.99c-.676-1.156-1.061-2.41-1.254-3.663-.097-.676-.193-1.35-.097-2.026v-.578c0 .096 0 0 0 0v-.483c0-.385.097-.674.193-1.06a14.11 14.11 0 0 1 4.147-7.811c.578-.579 1.157-1.061 1.832-1.447.675-.482 1.35-.868 2.025-1.157.675-.29 1.447-.578 2.218-.771.772-.193 1.543-.386 2.315-.386.385 0 .77-.097 1.157-.097H64.61c.097 0 0 0 0 0h.386c.868.097 1.736.193 2.507.386 1.64.386 3.279.965 4.822 1.832 3.086 1.736 5.69 4.34 7.232 7.522a17.636 17.636 0 0 1 1.64 5.111c.096.482.096.868.192 1.35v2.507c0 .483-.096.965-.096 1.447-.096.482-.096.964-.193 1.446l-.29 1.447c-.192.964-.578 1.832-.867 2.796a20.244 20.244 0 0 1-2.797 5.111 23.396 23.396 0 0 1-9.064 7.426c-1.832.771-3.665 1.446-5.593 1.736-.965.192-1.93.289-2.893.289H58.149c.096 0 0 0 0 0h-.096c-.482 0-1.061 0-1.543-.097a33.183 33.183 0 0 1-6.172-1.157 30.204 30.204 0 0 1-5.786-2.314c-3.664-1.929-6.943-4.725-9.547-7.908-1.253-1.639-2.41-3.375-3.375-5.207-.964-1.832-1.64-3.76-2.218-5.69-.578-1.928-.868-3.953-.964-5.978v-2.99c0-.964.096-2.025.289-3.086.097-1.06.29-2.025.482-3.086.193-1.06.482-2.025.772-3.085.578-2.026 1.253-3.954 2.121-5.786 1.736-3.665 3.954-6.944 6.558-9.547a19.29 19.29 0 0 1 2.121-1.832c.29-.29.965-.868 1.736-1.35.771-.483 1.543-.965 2.41-1.35.387-.194.772-.386 1.254-.58.193-.096.386-.192.675-.288.193-.097.386-.193.675-.29.868-.386 1.736-.675 2.604-.964.193-.097.482-.097.675-.193.193-.096.482-.096.675-.193a7.099 7.099 0 0 0 1.35-.386c.193-.096.483-.096.675-.192.193 0 .482-.097.675-.097.193 0 .483-.096.675-.096l.386-.097.386-.096c.193 0 .482-.097.675-.097.29 0 .482-.096.771-.096.193 0 .579-.096.772-.096.193 0 .29 0 .482-.097h.675c.29 0 .482 0 .771-.096h.386s.097 0 0 0H63.742a43.6 43.6 0 0 1 5.111.578c3.279.579 6.461 1.64 9.258 3.086 2.796 1.35 5.4 3.086 7.521 4.918.097.097.29.193.386.386.097.096.29.193.386.386.29.192.482.482.771.675.29.193.483.482.772.675.193.289.482.482.675.771.964.965 1.832 2.025 2.604 2.99 1.543 2.025 2.796 4.05 3.76 5.978.097.097.097.193.193.386.097.097.097.193.193.386.097.193.193.482.386.675.096.193.193.482.29.675.096.193.192.482.289.675.385.868.675 1.736.964 2.604.482 1.35.771 2.507 1.06 3.471a.926.926 0 0 0 .869.675c.482 0 .771-.385.771-.868-.096-1.157-.096-2.41-.193-3.857Z"/></svg>