<svg xmlns="http://www.w3.org/2000/svg" xml:space="preserve" stroke-miterlimit="10" style="fill-rule:nonzero;clip-rule:evenodd;stroke-linecap:round;stroke-linejoin:round" viewBox="0 0 100 100"><clipPath id="a"><path d="M0 0h100v100H0z"/></clipPath><g clip-path="url(#a)"><path fill="#fff" d="M43.826.37C27.131 2.546 13.242 12.227 5.456 27.098-1.63 40.495-1.84 58.873 4.965 72.342c8.838 17.396 25.533 27.708 45.034 27.708 19.501 0 36.196-10.312 45.035-27.708 6.804-13.468 6.594-31.847-.491-45.245C84.793 8.437 64.239-2.365 43.826.37ZM83.53 21.907c-.07.28-1.333 3.437-2.666 7.015l-2.385 6.383-9.12.21-9.118.21-.562 2.807a86.258 86.258 0 0 1-.911 4.349c-.351 1.543-.281 1.543 8.347 1.754l8.698.21-2.665 6.664-2.666 6.664-7.225.35-7.225.352-2.315 11.223c-1.192 6.173-2.245 11.364-2.315 11.504 0 .14-4.209 0-9.26-.28-11.012-.632-14.73-1.614-6.874-1.824 2.876-.07 7.646-.28 10.522-.561l5.261-.421-3.858-.491c-2.104-.28-8.137-.772-13.328-1.052l-9.47-.491 12.627-.842c6.945-.491 13.117-.982 13.679-1.052.56-.07-6.173-.492-15.082-.983-18.519-.841-17.817-1.473 2.806-2.244 15.502-.561 14.31-.912-6.313-2.034l-10.523-.562 14.521-.771c7.927-.351 14.66-.912 14.941-1.123.21-.28-6.944-.701-15.923-1.052-14.871-.49-15.783-.631-10.031-1.122 3.507-.28 11.364-.772 17.537-1.052l11.223-.491-9.119-.562c-20.974-1.333-21.745-1.613-5.752-2.244 7.997-.351 14.45-.772 14.17-.982-.21-.21-9.891-.772-21.606-1.193L10.366 57.4l14.03-.49c7.716-.281 17.676-.702 22.096-.983l8.067-.56-6.664-.422c-3.648-.28-9.54-.49-13.118-.56-8.909-.071-9.26-1.474-.42-1.544 3.787-.07 10.17-.28 14.24-.561l7.365-.491-4.56-.491c-2.525-.281-8.347-.702-12.977-1.053l-8.418-.56 11.574-.562c6.384-.35 12.206-.842 12.978-1.122.771-.28-6.664-.772-16.485-1.123-15.502-.49-16.975-.631-11.223-1.052 3.647-.28 11.434-.49 17.326-.561 5.822 0 10.803-.35 11.013-.702.21-.35-3.437-.841-8.207-1.122-12.767-.772-12.837-1.473-.14-2.174 15.011-.702 10.872-1.403-13.188-2.035-10.312-.28-18.66-.631-18.59-.771.141-.14 9.33-.702 20.414-1.263 11.083-.631 20.904-1.193 21.745-1.263.842 0-4.279-.42-11.434-.841l-12.977-.842 13.188-.561c7.225-.351 12.977-.772 12.767-.982-.21-.21-8.488-.772-18.45-1.193l-18.027-.771 13.328-.562c7.365-.28 15.853-.771 18.94-1.052 5.26-.491 4.77-.561-7.015-1.052-6.945-.28-13.117-.702-13.679-.982-.982-.421 9.05-1.123 21.395-1.543 5.261-.14 5.402-.21 2.455-.702-1.753-.35-7.576-.842-12.977-1.122-11.013-.702-10.312-.772 8.067-1.614 18.098-.771 31.005-.841 30.725-.21Z"/></g></svg>